<!-- A sprite that contains all SVG files -->
<svg xmlns="http://www.w3.org/2000/svg" xmlns:xlink="http://www.w3.org/1999/xlink">
  <defs>
    <symbol id="bash" viewBox="0 0 256 128">
      <path fill="none" d="M-143.76 4.24h119.53v119.53h-119.53z">
      </path>
      <path fill="#03999C" d="M109.01 28.64L71.28 6.24c-2.25-1.33-4.77-2-7.28-2s-5.03.67-7.28 2.01l-37.74 22.4c-4.5 2.67-7.28 7.61-7.28 12.96v44.8c0 5.35 2.77 10.29 7.28 12.96l37.73 22.4c2.25 1.34 4.76 2 7.28 2 2.51 0 5.03-.67 7.28-2l37.74-22.4c4.5-2.67 7.28-7.62 7.28-12.96V41.6c0-5.34-2.77-10.29-7.28-12.96zM79.79 98.59l.06 3.22c0 .39-.25.83-.55.99l-1.91 1.1c-.3.15-.56-.03-.56-.42l-.03-3.17c-1.63.68-3.29.84-4.34.42-.2-.08-.29-.37-.21-.71l.69-2.91c.06-.23.18-.46.34-.6.06-.06.12-.1.18-.13.11-.06.22-.07.31-.03 1.14.38 2.59.2 3.99-.5 1.78-.9 2.97-2.72 2.95-4.52-.02-1.64-.9-2.31-3.05-2.33-2.74.01-5.3-.53-5.34-4.57-.03-3.32 1.69-6.78 4.43-8.96l-.03-3.25c0-.4.24-.84.55-1l1.85-1.18c.3-.15.56.04.56.43l.03 3.25c1.36-.54 2.54-.69 3.61-.44.23.06.34.38.24.75l-.72 2.88c-.06.22-.18.44-.33.58a.77.77 0 01-.19.14c-.1.05-.19.06-.28.05-.49-.11-1.65-.36-3.48.56-1.92.97-2.59 2.64-2.58 3.88.02 1.48.77 1.93 3.39 1.97 3.49.06 4.99 1.58 5.03 5.09.05 3.44-1.79 7.15-4.61 9.41zm19.78-5.41c0 .3-.04.58-.29.72l-9.54 5.8c-.25.15-.45.02-.45-.28v-2.46c0-.3.18-.46.43-.61l9.4-5.62c.25-.15.45-.02.45.28v2.17zm6.56-55.09l-35.7 22.05c-4.45 2.6-7.73 5.52-7.74 10.89v43.99c0 3.21 1.3 5.29 3.29 5.9-.65.11-1.32.19-1.98.19-2.09 0-4.15-.57-5.96-1.64l-37.73-22.4c-3.69-2.19-5.98-6.28-5.98-10.67V41.6c0-4.39 2.29-8.48 5.98-10.67l37.74-22.4c1.81-1.07 3.87-1.64 5.96-1.64s4.15.57 5.96 1.64l37.74 22.4c3.11 1.85 5.21 5.04 5.8 8.63-1.27-2.67-4.09-3.39-7.38-1.47z"></path>
    </symbol>
    <symbol id="python" viewBox="0 0 256 128">
      <linearGradient id="python-original-a" gradientUnits="userSpaceOnUse" x1="70.252" y1="1237.476" x2="170.659" y2="1151.089" gradientTransform="matrix(.563 0 0 -.568 -29.215 707.817)"><stop offset="0" stop-color="#5A9FD4"></stop><stop offset="1" stop-color="#306998"></stop></linearGradient><linearGradient id="python-original-b" gradientUnits="userSpaceOnUse" x1="209.474" y1="1098.811" x2="173.62" y2="1149.537" gradientTransform="matrix(.563 0 0 -.568 -29.215 707.817)"><stop offset="0" stop-color="#FFD43B"></stop><stop offset="1" stop-color="#FFE873"></stop></linearGradient><path fill="url(#python-original-a)" d="M63.391 1.988c-4.222.02-8.252.379-11.8 1.007-10.45 1.846-12.346 5.71-12.346 12.837v9.411h24.693v3.137H29.977c-7.176 0-13.46 4.313-15.426 12.521-2.268 9.405-2.368 15.275 0 25.096 1.755 7.311 5.947 12.519 13.124 12.519h8.491V67.234c0-8.151 7.051-15.34 15.426-15.34h24.665c6.866 0 12.346-5.654 12.346-12.548V15.833c0-6.693-5.646-11.72-12.346-12.837-4.244-.706-8.645-1.027-12.866-1.008zM50.037 9.557c2.55 0 4.634 2.117 4.634 4.721 0 2.593-2.083 4.69-4.634 4.69-2.56 0-4.633-2.097-4.633-4.69-.001-2.604 2.073-4.721 4.633-4.721z" transform="translate(0 10.26)"></path><path fill="url(#python-original-b)" d="M91.682 28.38v10.966c0 8.5-7.208 15.655-15.426 15.655H51.591c-6.756 0-12.346 5.783-12.346 12.549v23.515c0 6.691 5.818 10.628 12.346 12.547 7.816 2.297 15.312 2.713 24.665 0 6.216-1.801 12.346-5.423 12.346-12.547v-9.412H63.938v-3.138h37.012c7.176 0 9.852-5.005 12.348-12.519 2.578-7.735 2.467-15.174 0-25.096-1.774-7.145-5.161-12.521-12.348-12.521h-9.268zM77.809 87.927c2.561 0 4.634 2.097 4.634 4.692 0 2.602-2.074 4.719-4.634 4.719-2.55 0-4.633-2.117-4.633-4.719 0-2.595 2.083-4.692 4.633-4.692z" transform="translate(0 10.26)"></path><radialGradient id="python-original-c" cx="1825.678" cy="444.45" r="26.743" gradientTransform="matrix(0 -.24 -1.055 0 532.979 557.576)" gradientUnits="userSpaceOnUse"><stop offset="0" stop-color="#B8B8B8" stop-opacity=".498"></stop><stop offset="1" stop-color="#7F7F7F" stop-opacity="0"></stop></radialGradient><path opacity=".444" fill="url(#python-original-c)" d="M97.309 119.597c0 3.543-14.816 6.416-33.091 6.416-18.276 0-33.092-2.873-33.092-6.416 0-3.544 14.815-6.417 33.092-6.417 18.275 0 33.091 2.872 33.091 6.417z"></path>    </symbol>
    <symbol id="javascript" viewBox="0 0 256 128">
      <path fill="#F0DB4F" d="M1.408 1.408h125.184v125.185H1.408z"></path><path fill="#323330" d="M116.347 96.736c-.917-5.711-4.641-10.508-15.672-14.981-3.832-1.761-8.104-3.022-9.377-5.926-.452-1.69-.512-2.642-.226-3.665.821-3.32 4.784-4.355 7.925-3.403 2.023.678 3.938 2.237 5.093 4.724 5.402-3.498 5.391-3.475 9.163-5.879-1.381-2.141-2.118-3.129-3.022-4.045-3.249-3.629-7.676-5.498-14.756-5.355l-3.688.477c-3.534.893-6.902 2.748-8.877 5.235-5.926 6.724-4.236 18.492 2.975 23.335 7.104 5.332 17.54 6.545 18.873 11.531 1.297 6.104-4.486 8.08-10.234 7.378-4.236-.881-6.592-3.034-9.139-6.949-4.688 2.713-4.688 2.713-9.508 5.485 1.143 2.499 2.344 3.63 4.26 5.795 9.068 9.198 31.76 8.746 35.83-5.176.165-.478 1.261-3.666.38-8.581zM69.462 58.943H57.753l-.048 30.272c0 6.438.333 12.34-.714 14.149-1.713 3.558-6.152 3.117-8.175 2.427-2.059-1.012-3.106-2.451-4.319-4.485-.333-.584-.583-1.036-.667-1.071l-9.52 5.83c1.583 3.249 3.915 6.069 6.902 7.901 4.462 2.678 10.459 3.499 16.731 2.059 4.082-1.189 7.604-3.652 9.448-7.401 2.666-4.915 2.094-10.864 2.07-17.444.06-10.735.001-21.468.001-32.237z"></path>
    </symbol>
    <symbol id="java" viewBox="0 0 256 128">
      <path  d="M47.617 98.12c-19.192 5.362 11.677 16.439 36.115 5.969-4.003-1.556-6.874-3.351-6.874-3.351-10.897 2.06-15.952 2.222-25.844 1.092-8.164-.935-3.397-3.71-3.397-3.71zm33.189-10.46c-14.444 2.779-22.787 2.69-33.354 1.6-8.171-.845-2.822-4.805-2.822-4.805-21.137 7.016 11.767 14.977 41.309 6.336-3.14-1.106-5.133-3.131-5.133-3.131zm11.319-60.575c.001 0-42.731 10.669-22.323 34.187 6.024 6.935-1.58 13.17-1.58 13.17s15.289-7.891 8.269-17.777c-6.559-9.215-11.587-13.793 15.634-29.58zm9.998 81.144s3.529 2.91-3.888 5.159c-14.102 4.272-58.706 5.56-71.095.171-4.45-1.938 3.899-4.625 6.526-5.192 2.739-.593 4.303-.485 4.303-.485-4.952-3.487-32.013 6.85-13.742 9.815 49.821 8.076 90.817-3.637 77.896-9.468zM85 77.896c2.395-1.634 5.703-3.053 5.703-3.053s-9.424 1.685-18.813 2.474c-11.494.964-23.823 1.154-30.012.326-14.652-1.959 8.033-7.348 8.033-7.348s-8.812-.596-19.644 4.644C17.455 81.134 61.958 83.958 85 77.896zm5.609 15.145c-.108.29-.468.616-.468.616 31.273-8.221 19.775-28.979 4.822-23.725-1.312.464-2 1.543-2 1.543s.829-.334 2.678-.72c7.559-1.575 18.389 10.119-5.032 22.286zM64.181 70.069c-4.614-10.429-20.26-19.553.007-35.559C89.459 14.563 76.492 1.587 76.492 1.587c5.23 20.608-18.451 26.833-26.999 39.667-5.821 8.745 2.857 18.142 14.688 28.815zm27.274 51.748c-19.187 3.612-42.854 3.191-56.887.874 0 0 2.874 2.38 17.646 3.331 22.476 1.437 57-.8 57.816-11.436.001 0-1.57 4.032-18.575 7.231z"></path>
    </symbol>
    <symbol id="docker" viewBox="0 0 256 128">
<path fill="#3A4D54" fill-rule="evenodd" d="M73.8 50.8h11.3v11.5h5.7c2.6 0 5.3-.5 7.8-1.3c1.2-.4 2.6-1 3.8-1.7c-1.6-2.1-2.4-4.7-2.6-7.3c-.3-3.5.4-8.1 2.8-10.8l1.2-1.4l1.4 1.1c3.6 2.9 6.5 6.8 7.1 11.4c4.3-1.3 9.3-1 13.1 1.2l1.5.9l-.8 1.6c-3.2 6.2-9.9 8.2-16.4 7.8c-9.8 24.3-31 35.8-56.8 35.8c-13.3 0-25.5-5-32.5-16.8l-.1-.2l-1-2.1c-2.4-5.2-3.1-10.9-2.6-16.6l.2-1.7h9.6V50.8h11.3V39.6h22.5V28.3h13.5z" clip-rule="evenodd"/><path fill="#00AADA" d="M110.4 55.1c.8-5.9-3.6-10.5-6.4-12.7c-3.1 3.6-3.6 13.2 1.3 17.2c-2.8 2.4-8.5 4.7-14.5 4.7H18.6c-.6 6.2.5 11.9 3 16.8l.8 1.5c.5.9 1.1 1.7 1.7 2.6c3 .2 5.7.3 8.2.2c4.9-.1 8.9-.7 12-1.7c.5-.2.9.1 1.1.5c.2.5-.1.9-.5 1.1c-.4.1-.8.3-1.3.4c-2.4.7-5 1.1-8.3 1.3h-.6c-1.3.1-2.7.1-4.2.1c-1.6 0-3.1 0-4.9-.1c6 6.8 15.4 10.8 27.2 10.8c25 0 46.2-11.1 55.5-35.9c6.7.7 13.1-1 16-6.7c-4.5-2.7-10.5-1.8-13.9-.1"/><path fill="#28B8EB" d="M110.4 55.1c.8-5.9-3.6-10.5-6.4-12.7c-3.1 3.6-3.6 13.2 1.3 17.2c-2.8 2.4-8.5 4.7-14.5 4.7h-68c-.3 9.5 3.2 16.7 9.5 21c4.9-.1 8.9-.7 12-1.7c.5-.2.9.1 1.1.5c.2.5-.1.9-.5 1.1c-.4.1-.8.3-1.3.4c-2.4.7-5.2 1.2-8.5 1.4l-.1-.1c8.5 4.4 20.8 4.3 35-1.1c15.8-6.1 30.6-17.7 40.9-30.9c-.2.1-.4.1-.5.2"/><path fill="#028BB8" d="M18.7 71.8c.4 3.3 1.4 6.4 2.9 9.3l.8 1.5c.5.9 1.1 1.7 1.7 2.6c3 .2 5.7.3 8.2.2c4.9-.1 8.9-.7 12-1.7c.5-.2.9.1 1.1.5c.2.5-.1.9-.5 1.1c-.4.1-.8.3-1.3.4c-2.4.7-5.2 1.2-8.5 1.4h-.4c-1.3.1-2.7.1-4.1.1c-1.6 0-3.2 0-4.9-.1c6 6.8 15.5 10.8 27.3 10.8c21.4 0 40-8.1 50.8-26H18.7z"/><path fill="#019BC6" d="M23.5 71.8c1.3 5.8 4.3 10.4 8.8 13.5c4.9-.1 8.9-.7 12-1.7c.5-.2.9.1 1.1.5c.2.5-.1.9-.5 1.1c-.4.1-.8.3-1.3.4c-2.4.7-5.2 1.2-8.6 1.4c8.5 4.4 20.8 4.3 34.9-1.1c8.5-3.3 16.8-8.2 24.2-14.1z"/><path fill="#00ACD3" fill-rule="evenodd" d="M28.4 52.7h9.8v9.8h-9.8zm.8.8h.8v8.1h-.8zm1.4 0h.8v8.1h-.8zm1.5 0h.8v8.1h-.8zm1.5 0h.8v8.1h-.8zm1.5 0h.8v8.1h-.8zm1.5 0h.8v8.1h-.8zm3-12h9.8v9.8h-9.8zm.9.8h.8v8.1h-.8zm1.4 0h.8v8.1h-.8zm1.5 0h.8v8.1h-.8zm1.5 0h.8v8.1h-.8zm1.4 0h.8v8.1h-.8zm1.5 0h.8v8.1h-.8z" clip-rule="evenodd"/><path fill="#23C2EE" fill-rule="evenodd" d="M39.6 52.7h9.8v9.8h-9.8zm.9.8h.8v8.1h-.8zm1.4 0h.8v8.1h-.8zm1.5 0h.8v8.1h-.8zm1.5 0h.8v8.1h-.8zm1.4 0h.8v8.1h-.8zm1.5 0h.8v8.1h-.8z" clip-rule="evenodd"/><path fill="#00ACD3" fill-rule="evenodd" d="M50.9 52.7h9.8v9.8h-9.8zm.8.8h.8v8.1h-.8zm1.5 0h.8v8.1h-.8zm1.5 0h.8v8.1h-.8zm1.4 0h.8v8.1h-.8zm1.5 0h.8v8.1h-.8zm1.5 0h.8v8.1h-.8z" clip-rule="evenodd"/><path fill="#23C2EE" fill-rule="evenodd" d="M50.9 41.5h9.8v9.8h-9.8zm.8.8h.8v8.1h-.8zm1.5 0h.8v8.1h-.8zm1.5 0h.8v8.1h-.8zm1.4 0h.8v8.1h-.8zm1.5 0h.8v8.1h-.8zm1.5 0h.8v8.1h-.8zm3.1 10.4H72v9.8h-9.8zm.8.8h.8v8.1H63zm1.5 0h.8v8.1h-.8zm1.4 0h.8v8.1h-.8zm1.5 0h.8v8.1h-.8zm1.5 0h.8v8.1h-.8zm1.5 0h.8v8.1h-.8z" clip-rule="evenodd"/><path fill="#00ACD3" fill-rule="evenodd" d="M62.2 41.5H72v9.8h-9.8zm.8.8h.8v8.1H63zm1.5 0h.8v8.1h-.8zm1.4 0h.8v8.1h-.8zm1.5 0h.8v8.1h-.8zm1.5 0h.8v8.1h-.8zm1.5 0h.8v8.1h-.8z" clip-rule="evenodd"/><path fill="#23C2EE" fill-rule="evenodd" d="M62.2 30.2H72V40h-9.8zm.8.8h.8v8.1H63zm1.5 0h.8v8.1h-.8zm1.4 0h.8v8.1h-.8zm1.5 0h.8v8.1h-.8zm1.5 0h.8v8.1h-.8zm1.5 0h.8v8.1h-.8z" clip-rule="evenodd"/><path fill="#00ACD3" fill-rule="evenodd" d="M73.5 52.7h9.8v9.8h-9.8zm.8.8h.8v8.1h-.8zm1.4 0h.8v8.1h-.8zm1.5 0h.8v8.1h-.8zm1.5 0h.8v8.1h-.8zm1.5 0h.8v8.1h-.8zm1.5 0h.8v8.1h-.8z" clip-rule="evenodd"/><path fill="#D4EEF1" fill-rule="evenodd" d="M48.8 78.3c1.5 0 2.7 1.2 2.7 2.7c0 1.5-1.2 2.7-2.7 2.7c-1.5 0-2.7-1.2-2.7-2.7c0-1.5 1.2-2.7 2.7-2.7" clip-rule="evenodd"/><path fill="#3A4D54" fill-rule="evenodd" d="M48.8 79.1c.2 0 .5 0 .7.1c-.2.1-.4.4-.4.7c0 .4.4.8.8.8c.3 0 .6-.2.7-.4c.1.2.1.5.1.7c0 1.1-.9 1.9-1.9 1.9c-1.1 0-1.9-.9-1.9-1.9c0-1 .8-1.9 1.9-1.9M1.1 72.8h125.4c-2.7-.7-8.6-1.6-7.7-5.2c-5 5.7-16.9 4-20 1.2c-3.4 4.9-23 3-24.3-.8c-4.2 5-17.3 5-21.5 0c-1.4 3.8-21 5.7-24.3.8c-3 2.8-15 4.5-20-1.2c1.1 3.5-4.9 4.5-7.6 5.2" clip-rule="evenodd"/><path fill="#BFDBE0" d="M56 97.8c-6.7-3.2-10.3-7.5-12.4-12.2c-2.5.7-5.5 1.2-8.9 1.4c-1.3.1-2.7.1-4.1.1c-1.7 0-3.4 0-5.2-.1c6 6 13.6 10.7 27.5 10.8z"/><path fill="#D4EEF1" d="M46.1 89.9c-.9-1.3-1.8-2.8-2.5-4.3c-2.5.7-5.5 1.2-8.9 1.4c2.3 1.2 5.7 2.4 11.4 2.9"/>
    </symbol>
    <symbol id="spring" viewBox="0 0 256 128">
      <path d="M116.452 6.643a59.104 59.104 0 01-6.837 12.136A64.249 64.249 0 0064.205-.026C28.984-.026 0 28.982 0 64.242a64.316 64.316 0 0019.945 46.562l2.368 2.1a64.22 64.22 0 0041.358 15.122c33.487 0 61.637-26.24 64.021-59.683 1.751-16.371-3.051-37.077-11.24-61.7zM29.067 111.17a5.5 5.5 0 01-4.269 2.034c-3.018 0-5.487-2.484-5.487-5.502 0-3.017 2.485-5.501 5.487-5.501 1.25 0 2.485.433 3.452 1.234 2.351 1.9 2.718 5.384.817 7.735zm87.119-19.238c-15.843 21.122-49.68 14.003-71.376 15.02 0 0-3.852.234-7.721.867 0 0 1.45-.617 3.335-1.334 15.226-5.301 22.43-6.335 31.685-11.086 17.427-8.869 34.654-28.274 38.24-48.463-6.637 19.422-26.75 36.11-45.077 42.895-12.557 4.635-35.238 9.136-35.238 9.136l-.917-.484c-15.442-7.518-15.91-40.977 12.157-51.78 12.291-4.735 24.048-2.134 37.323-5.302 14.175-3.367 30.568-14.004 37.238-27.874 7.471 22.19 16.46 56.932.35 78.405z" fill="#77bc1f"></path>
    </symbol>
    <symbol id="ansible" viewBox="0 0 256 128">
      <path fill="#1A1918" d="M126 64c0 34.2-27.8 62-62 62S2 98.2 2 64S29.8 2 64 2s62 27.8 62 62"/><path fill="#FFF" d="m65 39.9l16 39.6l-24.1-19.1zm28.5 48.7L68.9 29.2c-.7-1.7-2.1-2.6-3.8-2.6c-1.7 0-3.2.9-3.9 2.6L34 94.3h9.3L54 67.5l32 25.9c1.3 1 2.2 1.5 3.4 1.5c2.4 0 4.5-1.8 4.5-4.4c.1-.5-.1-1.2-.4-1.9"/>    </symbol>
    <symbol id="trendmicro" viewBox="0 0 256 128">
<path fill="red" d="M12 0C5.38 0 0 5.37 0 12c0 2.45.734 4.72 2 6.62c-.5-1.17-.42-2.68.19-4.33l.01-.04l.05-.13l.05-.12l.02-.05c.22-.55.5-1.12.84-1.69c.05-.1.09-.19.14-.26H1.86l.35-.79c1.19-.33 3.17-.99 5.06-2.82h1.05l-1.29 2.75H9.1l-.38.82H6.66s-.97 1.94-1.3 3.32c-.25 1.54 0 2.72 1.38 3.13c.85.26 1.92.2 3.07-.12c2.69-.84 5.53-2.67 7.62-5.11c3.44-3.99 3.51-8.08.15-9.13c-2.15-.67-5.19.08-8 1.75c3.5-2.26 7.36-3.3 10.01-2.49c.5.15.94.37 1.3.63A11.97 11.97 0 0 0 12 0m10.17 5.63c.83 2.18-.2 5.44-2.97 8.66c-4.16 4.84-10.73 7.76-14.7 6.54a4.46 4.46 0 0 1-1.26-.62A11.96 11.96 0 0 0 12 24c6.63 0 12-5.37 12-12c0-2.34-.67-4.5-1.83-6.37"/>
    </symbol>
    <symbol id="splunk" viewBox="0 0 256 128">
<path fill="#0C1724" d="M41.172 47.891v25.477h4.594V47.891zm47.063 0v25.477h4.621V64.18c.703.813 1.285 1.766 1.914 2.633l3.156 4.379l1.324 1.84c.121.164.32.594.527.648c.109.027.266-.055.367-.09l.824-.293l3.063-1.062l-1.457-1.836l-2.934-3.645l-1.695-2.113l-.895-1.07v-.031c.547-.418 1.016-1.051 1.477-1.562l2.629-2.816l1.262-1.348c.176-.199.402-.367.512-.613c-.852-.242-1.695-.715-2.512-1.066c-.203-.086-.727-.43-.945-.359c-.152.051-.297.297-.398.418l-.926 1.07l-3.488 4.043l-.949 1.102c-.117.133-.258.371-.43.441c-.121.047-.293.016-.426.016V47.891zm20.879 3.813a1.56 1.56 0 0 0-.641.242c-1.309.883-.531 3.105 1.07 2.852a1.56 1.56 0 0 0 .676-.254c1.301-.898.492-3.09-1.105-2.84m.031.238c1.641-.234 1.988 2.406.367 2.617c-1.605.211-1.953-2.387-.367-2.617m-.367 2.195h.277v-.734c.168 0 .352-.012.469.129c.227.277.016.605.48.605c-.059-.273-.059-.719-.367-.824c.094-.062.188-.121.254-.215c.391-.578-.687-.973-1.062-.672c-.094.074-.051.32-.051.426zm.277-.949c0-.137-.059-.445.031-.559c.258-.316.965.422.305.551c-.109.02-.227.008-.336.008M6.699 71.805c.996.66 1.918 1.328 3.09 1.648c2.969.813 7.176.34 8.703-2.719a4.38 4.38 0 0 0 .418-1.227c.105-.59.105-1.184.027-1.773c-.336-2.473-3.035-3.949-4.832-5.34c-.605-.469-1.332-.977-1.73-1.645c-.68-1.141.266-2.285 1.426-2.488c.809-.145 1.711.051 2.449.387c.34.156.645.383.98.543c.301-.547.66-1.062.984-1.594c.082-.129.336-.418.305-.574c-.035-.168-.445-.312-.586-.383a9.54 9.54 0 0 0-1.957-.754c-2.594-.652-6.059-.328-7.625 2.141a4.35 4.35 0 0 0-.555 1.316a4.85 4.85 0 0 0-.121 1.164c.031 2.602 2.473 4.039 4.32 5.422c1.148.863 2.578 1.797 2.348 3.426c-.035.25-.129.492-.262.703c-.961 1.547-3.148 1.102-4.445.336a9.534 9.534 0 0 1-1.039-.727c-.09-.07-.27-.27-.395-.254c-.152.023-.332.461-.41.586c-.359.594-.801 1.176-1.094 1.805m18.859-13.289l-.031-2.508H21.09v26.055h4.438V71.07c.98.98 1.891 1.977 3.246 2.43c.871.289 1.816.332 2.727.266a7.84 7.84 0 0 0 2.172-.461c4.152-1.523 5.895-6.207 5.457-10.316c-.289-2.668-1.629-5.316-4.109-6.562c-.684-.34-1.387-.594-2.145-.719a8.46 8.46 0 0 0-3.43.133c-1.66.43-2.727 1.492-3.887 2.676m47.578-.184h-.027V56.68l-.031-.625l-.309-.047h-4.285v17.359h4.625v-7.992c0-1.477-.184-3.105.398-4.5c.891-2.156 4.363-3.012 6.027-1.227c1.07 1.152.953 2.895.953 4.348v9.371h4.59v-9.461c0-1.922.117-4.031-.867-5.758c-1.77-3.09-6.582-3.215-9.297-1.406c-.586.391-1.445.953-1.777 1.59m-24.371-2.355v9.063c0 1.691-.187 3.617.402 5.234c.266.738.648 1.473 1.223 2.02c1.832 1.75 5.047 1.898 7.316 1c1.203-.48 2.129-1.32 3.031-2.223v2.297h4.594V56.281l-.051-.273l-.348-.031h-4.195v7.961c0 1.5.168 3.152-.453 4.563c-.293.656-.77 1.238-1.383 1.617c-1.391.859-3.684.809-4.746-.547c-.832-1.062-.797-2.457-.797-3.734v-8.941c0-.172.094-.773-.051-.887c-.078-.062-.25-.031-.348-.031h-4.195m59.215.215v2.266l.031.836l.828.426l2.172 1.059l4.289 2.094l3.43 1.676l-3.094 1.523l-4.777 2.359l-2.051 1.012l-.797.414l-.031.848v2.172c.375-.066.766-.34 1.105-.512l2.141-1.07l6.922-3.43l2.57-1.285c.313-.156.883-.316 1.113-.578c.121-.137.051-.516.051-.687v-1.437c0-.203.047-.473-.012-.668c-.062-.211-.656-.395-.848-.488l-2.539-1.27l-7.133-3.582l-2.238-1.133c-.363-.184-.742-.434-1.133-.543m-78.227 2.152c1.758-.211 3.199.953 3.91 2.469c1.027 2.188.914 5.23.02 7.441c-.547 1.352-1.594 2.656-3.133 2.813c-2.203.223-3.891-1.066-4.605-3.121c-.27-.773-.383-1.602-.418-2.418c-.105-2.43.301-5.695 2.816-6.848c.453-.207.922-.281 1.41-.336m0 0"/>    </symbol>
    <symbol id="powershell" viewBox="0 0 256 128">
<linearGradient id="deviconPowershell0" x1="96.306" x2="25.454" y1="35.144" y2="98.431" gradientTransform="matrix(1 0 0 -1 0 128)" gradientUnits="userSpaceOnUse"><stop offset="0" stop-color="#a9c8ff"/><stop offset="1" stop-color="#c7e6ff"/></linearGradient><path fill="url(#deviconPowershell0)" fill-rule="evenodd" d="M7.2 110.5c-1.7 0-3.1-.7-4.1-1.9c-1-1.2-1.3-2.9-.9-4.6l18.6-80.5c.8-3.4 4-6 7.4-6h92.6c1.7 0 3.1.7 4.1 1.9c1 1.2 1.3 2.9.9 4.6l-18.6 80.5c-.8 3.4-4 6-7.4 6z" clip-rule="evenodd" opacity=".8"/><linearGradient id="deviconPowershell1" x1="25.336" x2="94.569" y1="98.33" y2="36.847" gradientTransform="matrix(1 0 0 -1 0 128)" gradientUnits="userSpaceOnUse"><stop offset="0" stop-color="#2d4664"/><stop offset=".169" stop-color="#29405b"/><stop offset=".445" stop-color="#1e2f43"/><stop offset=".79" stop-color="#0c131b"/><stop offset="1"/></linearGradient><path fill="url(#deviconPowershell1)" fill-rule="evenodd" d="M120.3 18.5H28.5c-2.9 0-5.7 2.3-6.4 5.2L3.7 104.3c-.7 2.9 1.1 5.2 4 5.2h91.8c2.9 0 5.7-2.3 6.4-5.2l18.4-80.5c.7-2.9-1.1-5.3-4-5.3" clip-rule="evenodd"/><path fill="#2C5591" fill-rule="evenodd" d="M64.2 88.3h22.3c2.6 0 4.7 2.2 4.7 4.9s-2.1 4.9-4.7 4.9H64.2c-2.6 0-4.7-2.2-4.7-4.9s2.1-4.9 4.7-4.9m14.5-21.8c-.4.8-1.2 1.6-2.6 2.6L34.6 98.9c-2.3 1.6-5.5 1-7.3-1.4c-1.7-2.4-1.3-5.7.9-7.3l37.4-27.1v-.6l-23.5-25c-1.9-2-1.7-5.3.4-7.4c2.2-2 5.5-2 7.4 0l28.2 30c1.7 1.9 1.8 4.5.6 6.4" clip-rule="evenodd"/><path fill="#FFF" fill-rule="evenodd" d="M77.6 65.5c-.4.8-1.2 1.6-2.6 2.6L33.6 97.9c-2.3 1.6-5.5 1-7.3-1.4c-1.7-2.4-1.3-5.7.9-7.3l37.4-27.1v-.6l-23.5-25c-1.9-2-1.7-5.3.4-7.4c2.2-2 5.5-2 7.4 0l28.2 30c1.7 1.8 1.8 4.4.5 6.4M63.5 87.8h22.3c2.6 0 4.7 2.1 4.7 4.6c0 2.6-2.1 4.6-4.7 4.6H63.5c-2.6 0-4.7-2.1-4.7-4.6c0-2.6 2.1-4.6 4.7-4.6" clip-rule="evenodd"/>
    </symbol>
    <symbol id="msdos" viewBox="0 0 256 128">
<path d="M84 124v4h24v-4zm-4.001-8.002h-3.996v4h3.996zm4 8.001v-4h-4v4zm-7.996-12.002h-4.001v4h4v-4M84 95.999v4h4v-4zm12.002 4v-4h-4v4H88V104h16v-4h-7.997M104 95.999v4h4v-4zm12.002 24h4.001v-4.001h-4v4m0 4.001v-4H108v4h8m-48 0H52V128h28v-4H68m-24 4v-4H8.002v4zm12.003-16.003v-4H48v12.002h-4v4h8v-12.002zm-28-68.001h4v-7.997h-4zM36 75.998v-8.001h-3.996v4H20V104h24v-4h-4v-4.001h-4.001v4H24V76h8.002v20h3.996V76M48 71.996v20h-4v8.001h4v-4h4V67.996h-4zm0-15.998v-4h-4v4zm-8.002 0v4H44v-4.001h-4m0 8.001v-4h-4.001v7.996h4V64M24.002 3.996v8.002h4V3.996zm-11.998 0h11.998V0h-16v47.996h-4v76.002h4V51.997h36v-8.002H40v4.001h-4.001v-4h-3.996v4H24V36h4v-8.002h-4v-4h-4v24h-7.998V3.995m20 16.003v-8.001h-4.001v8.001h4M40 27.996h4v-7.997h-4zm8 8.001h-4v7.997h4zm-12-8.001v8.002h4v-8.002zm-3.996-7.997v7.997H36v-7.997zM48 11.998h-4v8.001h4zm4 0V3.996h-4v8.002zm72 75.998h-3.996v28.002H124zM116.002 84v3.996h4.001V84h-4m0-24h4v-4.002h-4v4m4 0v11.998H124V60h-3.996m-12.002 19.999v4h8.001v-4zm-4-8.002h4v-4h-4zm4 0v4.001h12.002v-4h-12.002m-35.999 8V60h-4v11.997H64V64H52v3.997h8v32.002h-3.996v7.997H60V104h8v7.997h4.001v-16h-4v4.001h-4.002v-24H68V80h4.001m4 4v-4h-4v4zM84 67.998h12v28.001h7.997v-4h-4.001v-12h8.002v-4h-8.002v-8.002h4V64H84v3.996m0 8.001v-8.001h-4.001V84h-3.996v3.996h3.996v4h-7.997v4.001H84V75.998m-11.998-24h4v-4h-8V0h-16v3.996h11.997v44h-7.996v-24h-4.001v4.001H48V36h4v11.997h-4v4.001h24m4 4h-4V60h4v-4.001m0 0h3.997v-4.001h-3.996v4m3.996-12.002h-3.996v4.001h3.996zm28.003 8v4h8v-4zm0-4H79.999v4h28.002zm0-4.001v4h4v-4zm-4-7.997h-4.002v4H104zm0-8.002h4v-4h-8v4zM96.003 36H100v-4.001h-3.996v4m-12.002 0v-4h-12v11.998h4V36H84m4 0h-4v7.997h15.998V40H88zm-4-8.002v4.001h12.002v-4zm-4.001-4.001h-3.996v4H84v-4zM88.001 20v3.996h11.997V20H88m0-8.002h-4V20h4v-8M76.004 7.998h-4.001v15.998h4V7.997m0-4v4H84V3.996zm23.996 0H104V0H84v3.996zm0 8.002V7.997H88v4zm12.001 20v-4h-4v4zm4.001 0h-4v11.998h4zm-4-24v-4h-8.002v4H112m4.001 0h-4V16h-8.002v-4.001h-4V20H116zm0 0"/><path fill="navy" d="M72.002 115.998v4h4v-4zm4 8.001H80v-4h-3.996v4M84 95.997h4v-4h-4zm-31.998 24v4.001h4v-4h-4m7.996-4.002h-3.996v4.001h3.996v-4m4.001 4H68v-4h-4zm4 0v4.001h4v-4h-4m-4 4v-4h-4.002v4zm0-52.002h4v-4h-4zM44 84h4.001v-4.001h-4v4m4 3.997h-4v4h4zm-4-15.999v4.001h4v-4h-4M84 84v3.996h4V84zm0-12.003h4v-4h-4zm4 4.001h-4V80h4v-4M72.002 60v-4.001h-4v4zm4-4v-4.001h-4v4zm0 0"/><path fill="purple" d="M72.002 119.999v4h4v-4zm-20-4.001v4h4.002v-4zm4 8.001H60v-4h-3.996zM68 115.998v4h4.001v-4h-4m-4.001 4v-4h-4v4zm0 0V124h4.001v-4h-4M48 67.996h4V64h-4zm-4 16.003v3.996h4V84h-4m0-12.003h4v-4h-4zm4 4.001h-4V80h4v-4m20-11.998h-4.002v3.996H68V64m16 20h4v-4.001h-4v4m4 3.997h-4v4h4zm-4-15.999v4.001h4v-4zm0 0"/><path fill="#f0f" d="M92.001 95.997v-4h-4v4zm-52.002-4h-4v4h4zM44 99.998v-4h-4v4zm20 7.997h4v-3.996h-4zm4 4h-4v4.001h4v-4m-8-4.001v4h4v-4zm0 4h-3.996v4.001H60v-4m-16-24h-4v4h4zm-4-7.997v4h4v-4zm-4.001 7.997h4V84h-4zm4-11.998h-4V80h4v-4m0-8.002h-4v4h4zm4.001 8v-4h-4v4zm0-11.997h-4v3.996h4V64m0-4v4h4.001v-4zm24-4.001h-4.002v4H68zm-15.998 4v-4H48v4h4m7.998 0V64h4v-4.001zm-7.997 0v4h4v-4zm4-4.001v-4.001h-4v4zm3.997-4v4h4v-4zm0 4h-3.996v4.001h3.996v-4m36.003 31.998h-4v4h4zm0-7.997h-4v4h4zm-4-4h4v-4.002h-4zM88 76v4h4v-4zm0 8v3.997h4V84zm0-16.003v4h4v-4zm-15.999-12v-4h-4v4zm0 0"/><path fill="#00f" d="M92.001 99.998v-4h-4v4zm4.001-8.001h-4v4h4zM68 111.996v4h4.001v-4h-4M44 95.997v-4h-4.002v4zm20 15.999h-4.001v4h4zm0-4.001v4h4v-4zm-4.001-3.996v3.996h4v-3.996zm-3.996 7.997h-4.001v4h4zm0 0H60v-4.001h-3.996v4M39.999 80H44v-4h-4zm0 4v3.997h4V84zm0 3.996h-4.001v4h4zm0-7.997h-4v4h4zm-4-4h4v-4.002h-4zm8.001-4v-4.001h-4v4h4m4.001-7.996h-4v3.996h4V64m0-8.002h-4v4h4zm-8.002 4V64H44v-4h-4m24 0v4h4v-4zm4-4.001v-4.001h-4v4zm-8.001 0V60h4v-4zm-3.996 4v-4h-4.001v4zm0 0v4H60v-4.001zm-4.001 4v-4H48v4h4m0-8.001v-4.001h-4v4zm4.002 0h3.996v-4h-3.996zm35.998 32h-4v4h4zm0 0h4.001V84h-4v3.996m4-11.998h-4v4h4zm0-8.001h-4v4h4zM88 79.999v4h4v-4zm0-8.002v4.001h4v-4zm0 0"/><path fill="olive" d="M103.999 95.997h4v-4h-4zM112 107.995v4h-4v4.001H88v-4h-8v-4.001h-3.996v-7.997h-4.001v11.998h4v4H80v4.001h4v4.001h24v-4h8.002v-4.002h4V104h-4v3.996h-4M104 87.997h-4.001v4h4v-4m4.002-20v4.001h12.002v-7.996h-4v3.996H108M79.999 79.999h-3.996v4h3.996zm-3.996-4h-4.001v4h4v-4m32-11.999H104v3.996h4zm0 0"/><path fill="maroon" d="M48.001 111.996h-4v4h-32v4.001h-4v4.001H44v-4h4.001zm8.002-11.998h-4.001v7.997h4zm0 0H60v-4h-3.996zM39.999 51.997v4H44v-4zm0 4h-4.001v4.001h4zM20 64v7.996h12.003v-4h3.996V64zm0 0"/><path fill="red" d="M20 71.997v-7.996h16v-8.003h4v-4.001H8.001v68h4.001v-4H44v-4.001h4.001v-4.001h4v-7.997h4.002v-4h3.996V67.996h-7.997v28.002H48v4h-4V104H20Zm0 0"/><path fill="gray" d="M24.001 23.996V20h-4v-4H16v31.998h4v-24h4.001m4-11.998h-4v4h4zm-8-8.002V8h4V4h-4m36.003 19.999V20h-4.001v3.996h4M40 36h-4v4h4zm-4-4.001v-4h-3.996v4zm-3.996-8.001V20h-4.001v3.996h4m31.999-20H60v44h4v-44m48.002 39.999V31.998H108v11.998h4m-4 4v-4h-4v4zm0-15.998v-4h-4v4zm-8.002-8.002h-3.996v4.001H100v-4m-16-12h-4v11.998h8.002V20H84v-8.001m0 0h4V7.997h-4v4m15.998-8v4h4V3.996zM112 15.998V7.997h-4v8.001Zm0 0"/><path fill="silver" d="M52.002 3.996v8.002H48v8.001h-4v7.997h-4.002v12.002h-4v-8h-3.996v-8.002h-4.001V16H24V7.998h-4v-4h-7.998v44H16V16h4v4h4.001v7.997h4V36h4.001v7.997H36v4h4v-4h4V36h4v-8.002h4.002V20h4v27.997h3.996v-44zM84 35.998h-7.997v7.997h3.996v4h24v-4h4V31.998h-4v-4h-7.997v4h3.996v4h4V40h-4v3.995H84V36m4-12.003h-4v4.001h12.002v-4H88M84 12V7.998h-7.997v15.998h3.996V11.998h4m16-4.001v4h4V16h4V7.996h-8.001m0 0v-4H84v4zm0 0"/><path fill="#ff0" d="M99.998 79.999v7.997h4v4H108v8.002h-4.001v4H88v-4h-4v-4H72.002v4h4v7.997H80v4h8v4.001h20v-4h4v-4.001h4.001v-3.996h4.001V87.996h-4V84H108v-4.001zm8.002-24v-4H79.999v4h-3.996v4h-4.001v16h4v4H80V67.997h4V64h24v3.996h8.002V64h4v-4h-4v-4.002zm0 0"/>
    </symbol>
    <symbol id="typescript" viewBox="0 0 256 128">
      <path fill="#fff" d="M22.67 47h99.67v73.67H22.67z"></path><path data-name="original" fill="#007acc" d="M1.5 63.91v62.5h125v-125H1.5zm100.73-5a15.56 15.56 0 017.82 4.5 20.58 20.58 0 013 4c0 .16-5.4 3.81-8.69 5.85-.12.08-.6-.44-1.13-1.23a7.09 7.09 0 00-5.87-3.53c-3.79-.26-6.23 1.73-6.21 5a4.58 4.58 0 00.54 2.34c.83 1.73 2.38 2.76 7.24 4.86 8.95 3.85 12.78 6.39 15.16 10 2.66 4 3.25 10.46 1.45 15.24-2 5.2-6.9 8.73-13.83 9.9a38.32 38.32 0 01-9.52-.1 23 23 0 01-12.72-6.63c-1.15-1.27-3.39-4.58-3.25-4.82a9.34 9.34 0 011.15-.73L82 101l3.59-2.08.75 1.11a16.78 16.78 0 004.74 4.54c4 2.1 9.46 1.81 12.16-.62a5.43 5.43 0 00.69-6.92c-1-1.39-3-2.56-8.59-5-6.45-2.78-9.23-4.5-11.77-7.24a16.48 16.48 0 01-3.43-6.25 25 25 0 01-.22-8c1.33-6.23 6-10.58 12.82-11.87a31.66 31.66 0 019.49.26zm-29.34 5.24v5.12H56.66v46.23H45.15V69.26H28.88v-5a49.19 49.19 0 01.12-5.17C29.08 59 39 59 51 59h21.83z"></path>
    </symbol>
    <symbol id="android" viewBox="0 0 256 128">
      <path fill="#fff" d="M21.005 43.003c-4.053-.002-7.338 3.291-7.339 7.341l.005 30.736a7.338 7.338 0 007.342 7.343 7.33 7.33 0 007.338-7.342V50.34a7.345 7.345 0 00-7.346-7.337m59.193-27.602l5.123-9.355a1.023 1.023 0 00-.401-1.388 1.022 1.022 0 00-1.382.407l-5.175 9.453c-4.354-1.938-9.227-3.024-14.383-3.019-5.142-.005-10.013 1.078-14.349 3.005L44.45 5.075a1.01 1.01 0 00-1.378-.406 1.007 1.007 0 00-.404 1.38l5.125 9.349c-10.07 5.193-16.874 15.083-16.868 26.438l66.118-.008c.002-11.351-6.79-21.221-16.845-26.427M48.942 29.858a2.772 2.772 0 01.003-5.545 2.78 2.78 0 012.775 2.774 2.776 2.776 0 01-2.778 2.771m30.106-.005a2.77 2.77 0 01-2.772-2.771 2.793 2.793 0 012.773-2.778 2.79 2.79 0 012.767 2.779 2.767 2.767 0 01-2.768 2.77M31.195 44.39l.011 47.635a7.822 7.822 0 007.832 7.831l5.333.002.006 16.264c-.001 4.05 3.291 7.342 7.335 7.342 4.056 0 7.342-3.295 7.343-7.347l-.004-16.26 9.909-.003.004 16.263c0 4.047 3.293 7.346 7.338 7.338 4.056.003 7.344-3.292 7.343-7.344l-.005-16.259 5.352-.004a7.835 7.835 0 007.836-7.834l-.009-47.635-65.624.011zm83.134 5.943a7.338 7.338 0 00-7.341-7.339c-4.053-.004-7.337 3.287-7.337 7.342l.006 30.738a7.334 7.334 0 007.339 7.339 7.337 7.337 0 007.338-7.343l-.005-30.737z"></path>
    </symbol>
   <symbol id="c" viewBox="0 0 256 128">
      <path d="M116.5 32.3c-.6-1.1-1.4-2.1-2.3-2.6L66.1 1.9c-.8-.5-1.9-.7-3.1-.7-1.2 0-2.3.3-3.1.7L11.4 29.7c-1.7 1-3.4 3.5-3.4 5.4v55.7c0 1.1.7 2.3 1.4 3.4l.1.1c.5.8 1.3 1.5 2 1.9l48.3 27.9c.8.5 2 .7 3.2.7 1.2 0 2.3-.3 3.1-.7l47.5-27.9c1.7-1 2.4-3.5 2.4-5.4V35.1c0-.8.4-1.8 0-2.6l.5-.2zm-4.2 2.1c0 .3-.3.5-.3.7v55.7c0 .8-.2 1.7-.4 2L64 120.6c-.1.1-.5.2-1.1.2-.6 0-1-.1-1.1-.2L13.6 92.8s-.1-.1-.2-.1l-.6-.6c-.4-.7.2-1.1-.8-1.2V35.2c1-.5.9-1.7 1.4-1.9L61.7 5.4c.1 0 .6-.2 1.2-.2s1 .1 1.1.2l48 27.7.4.9c.1.1-.1.3-.1.4zM63 38.5c9.1 0 17.1 5 21.3 12.5l13-7.5c-6.8-11.9-19.6-20-34.3-20-21.8 0-39.5 17.7-39.5 39.5s17.7 39.5 39.5 39.5c14.6 0 27.4-8 34.2-19.8l-12.9-7.6C80.1 82.5 72.1 87.5 63 87.5c-13.5 0-24.5-11-24.5-24.5s11-24.5 24.5-24.5z" fill="#03599C"></path>
    </symbol>
    <symbol id="packer" viewBox="0 0 256 128">
      <path fill="#1daeff" d="M66.354 39.617V128l-41.482-23.963v-88.39Zm0 0"/><path fill="#1d94dd" d="M86.893 25.975L41.801 0v18.044L72.46 35.75v54.119l14.433 8.269c8.934 5.158 16.236 2.066 16.236-6.863V51.592c0-8.933-7.302-20.459-16.235-25.617zm0 0"/>
    </symbol>
    <symbol id="apple" viewBox="0 0 256 128">
      <path d="M97.905 67.885c.174 18.8 16.494 25.057 16.674 25.137-.138.44-2.607 8.916-8.597 17.669-5.178 7.568-10.553 15.108-19.018 15.266-8.318.152-10.993-4.934-20.504-4.934-9.508 0-12.479 4.776-20.354 5.086-8.172.31-14.395-8.185-19.616-15.724C15.822 94.961 7.669 66.8 18.616 47.791c5.438-9.44 15.158-15.417 25.707-15.571 8.024-.153 15.598 5.398 20.503 5.398 4.902 0 14.106-6.676 23.782-5.696 4.051.169 15.421 1.636 22.722 12.324-.587.365-13.566 7.921-13.425 23.639M82.272 21.719c4.338-5.251 7.258-12.563 6.462-19.836-6.254.251-13.816 4.167-18.301 9.416-4.02 4.647-7.54 12.087-6.591 19.216 6.971.54 14.091-3.542 18.43-8.796"></path>
    </symbol>
    <symbol id="linux" viewBox="0 0 256 128">
      <path fill-rule="evenodd" clip-rule="evenodd" d="M113.823 104.595c-1.795-1.478-3.629-2.921-5.308-4.525-1.87-1.785-3.045-3.944-2.789-6.678.147-1.573-.216-2.926-2.113-3.452.446-1.154.864-1.928 1.033-2.753.188-.92.178-1.887.204-2.834.264-9.96-3.334-18.691-8.663-26.835-2.454-3.748-5.017-7.429-7.633-11.066-4.092-5.688-5.559-12.078-5.633-18.981a47.564 47.564 0 00-1.081-9.475C80.527 11.956 77.291 7.233 71.422 4.7c-4.497-1.942-9.152-2.327-13.901-1.084-6.901 1.805-11.074 6.934-10.996 14.088.074 6.885.417 13.779.922 20.648.288 3.893-.312 7.252-2.895 10.34-2.484 2.969-4.706 6.172-6.858 9.397-1.229 1.844-2.317 3.853-3.077 5.931-2.07 5.663-3.973 11.373-7.276 16.5-1.224 1.9-1.363 4.026-.494 6.199.225.563.363 1.429.089 1.882-2.354 3.907-5.011 7.345-10.066 8.095-3.976.591-4.172 1.314-4.051 5.413.1 3.337.061 6.705-.28 10.021-.363 3.555.008 4.521 3.442 5.373 7.924 1.968 15.913 3.647 23.492 6.854 3.227 1.365 6.465.891 9.064-1.763 2.713-2.771 6.141-3.855 9.844-3.859 6.285-.005 12.572.298 18.86.369 1.702.02 2.679.653 3.364 2.199.84 1.893 2.26 3.284 4.445 3.526 4.193.462 8.013-.16 11.19-3.359 3.918-3.948 8.436-7.066 13.615-9.227 1.482-.619 2.878-1.592 4.103-2.648 2.231-1.922 2.113-3.146-.135-5zM62.426 24.12c.758-2.601 2.537-4.289 5.243-4.801 2.276-.43 4.203.688 5.639 3.246 1.546 2.758 2.054 5.64.734 8.658-1.083 2.474-1.591 2.707-4.123 1.868-.474-.157-.937-.343-1.777-.652.708-.594 1.154-1.035 1.664-1.382 1.134-.772 1.452-1.858 1.346-3.148-.139-1.694-1.471-3.194-2.837-3.175-1.225.017-2.262 1.167-2.4 2.915-.086 1.089.095 2.199.173 3.589-3.446-1.023-4.711-3.525-3.662-7.118zm-12.75-2.251c1.274-1.928 3.197-2.314 5.101-1.024 2.029 1.376 3.547 5.256 2.763 7.576-.285.844-1.127 1.5-1.716 2.241l-.604-.374c-.23-1.253-.276-2.585-.757-3.733-.304-.728-1.257-1.184-1.919-1.762-.622.739-1.693 1.443-1.757 2.228-.088 1.084.477 2.28.969 3.331.311.661 1.001 1.145 1.713 1.916l-1.922 1.51c-3.018-2.7-3.915-8.82-1.871-11.909zM87.34 86.075c-.203 2.604-.5 2.713-3.118 3.098-1.859.272-2.359.756-2.453 2.964a101.744 101.744 0 00-.012 7.753c.061 1.77-.537 3.158-1.755 4.393-6.764 6.856-14.845 10.105-24.512 8.926-4.17-.509-6.896-3.047-9.097-6.639.98-.363 1.705-.607 2.412-.894 3.122-1.27 3.706-3.955 1.213-6.277-1.884-1.757-3.986-3.283-6.007-4.892-1.954-1.555-3.934-3.078-5.891-4.629-1.668-1.323-2.305-3.028-2.345-5.188-.094-5.182.972-10.03 3.138-14.747 1.932-4.209 3.429-8.617 5.239-12.885.935-2.202 1.906-4.455 3.278-6.388 1.319-1.854 2.134-3.669 1.988-5.94-.084-1.276-.016-2.562-.016-3.843l.707-.352c1.141.985 2.302 1.949 3.423 2.959 4.045 3.646 7.892 3.813 12.319.67 1.888-1.341 3.93-2.47 5.927-3.652.497-.294 1.092-.423 1.934-.738 2.151 5.066 4.262 10.033 6.375 15 1.072 2.524 1.932 5.167 3.264 7.547 2.671 4.775 4.092 9.813 4.07 15.272-.012 2.83.137 5.67-.081 8.482z"></path> 
    </symbol>
    <symbol id="angular" viewBox="0 0 256 128">
      <path fill="#C4473A" d="M52.864 64h23.28L63.769 38.123zM63.81 1.026L4.553 21.88l9.363 77.637 49.957 27.457 50.214-27.828 9.36-77.635L63.81 1.026zM48.044 75l-7.265 18.176-13.581.056 36.608-81.079-.07-.153h-.064l.001-.133.063.133h.141l.123-.274V12h-.124l-.069.153 38.189 81.417-13.074-.287-8.042-18.58-17.173.082"></path>
    </symbol>
    <symbol id="terraform" viewBox="0 0 256 128">
      <g fill-rule="evenodd"><path d="M46.324 26.082L77.941 44.5v36.836L46.324 62.918zm0 0M81.41 44.5v36.836l31.633-18.418V26.082zm0 0M11.242 5.523V42.36L42.86 60.777V23.941zm0 0M77.941 85.375L46.324 66.957v36.824L77.941 122.2zm0 0"></path></g>
    </symbol> 
    <symbol id="windows" viewBox="0 0 256 128">
<path fill="#0078d4" d="M67.328 67.331h60.669V128H67.328zm-67.325 0h60.669V128H.003zM67.328 0h60.669v60.669H67.328zM.003 0h60.669v60.669H.003z"/>    </symbol> 
  </defs>
</svg>